<svg width="15.419434" height="15.419556" viewBox="0 0 15.4194 15.4196" fill="none" xmlns="http://www.w3.org/2000/svg" xmlns:xlink="http://www.w3.org/1999/xlink">
	<desc>
			Created with Pixso.
	</desc>
	<defs/>
	<path id="Vector" d="M11.2 10.2C12.19 8.92 13.35 7.8 13.2 6.2C13.04 4.59 12.41 3.27 11.2 2.2C9.99 1.13 7.81 0.15 6.2 0.2C4.58 0.25 3.34 1.06 2.2 2.2C1.05 3.34 0.25 4.58 0.2 6.2C0.15 7.81 1.13 9.98 2.2 11.2C3.27 12.41 4.59 13.05 6.2 13.2C7.81 13.35 8.92 12.19 10.2 11.2L14.2 15.2C14.3 15.2 15.1 15.24 15.2 15.2C15.24 15.1 15.2 14.3 15.2 14.2L11.2 10.2ZM10.2 3.2C10.64 3.64 10.95 4.62 11.2 5.2C11.44 5.78 11.19 5.57 11.2 6.2C11.2 6.83 11.44 7.62 11.2 8.2C10.96 8.78 10.64 9.75 10.2 10.2C9.75 10.64 8.78 10.96 8.2 11.2C7.62 11.44 6.83 11.2 6.2 11.2C5.57 11.19 5.78 11.44 5.2 11.2C4.62 10.95 3.64 10.65 3.2 10.2C2.32 9.3 2.19 7.45 2.2 6.2C2.2 4.94 2.31 4.09 3.2 3.2C4.08 2.31 4.94 2.2 6.2 2.2C7.45 2.19 9.3 2.32 10.2 3.2Z" fill="#FFFFFF" fill-opacity="1.000000" fill-rule="evenodd"/>
	<path id="Vector" d="M13.41 6.46Q13.41 6.32 13.4 6.18Q13.28 4.92 12.77 3.91Q12.74 3.84 12.71 3.78Q12.2 2.82 11.33 2.05Q10.86 1.63 10.24 1.26Q9.61 0.88 8.92 0.59Q8.21 0.3 7.53 0.14Q6.8 -0.02 6.19 0Q5.77 0.01 5.36 0.09Q4.62 0.24 3.93 0.61Q3.01 1.1 2.06 2.06Q1.1 3.01 0.61 3.93Q0.25 4.6 0.1 5.32Q0.01 5.75 0 6.19Q-0.02 6.8 0.14 7.53Q0.3 8.21 0.59 8.92Q0.88 9.61 1.25 10.24Q1.63 10.86 2.05 11.33Q2.82 12.21 3.79 12.72Q3.85 12.75 3.91 12.77Q4.92 13.28 6.18 13.4Q6.32 13.41 6.47 13.41Q7.3 13.41 8.13 12.97Q8.51 12.76 8.97 12.43Q9.24 12.23 9.77 11.8Q10.02 11.6 10.18 11.46L14.11 15.4L14.2 15.4Q14.22 15.4 14.35 15.4Q14.68 15.41 14.85 15.41Q15.19 15.42 15.27 15.38L15.35 15.35L15.38 15.27Q15.42 15.19 15.41 14.85Q15.41 14.68 15.4 14.35Q15.4 14.22 15.4 14.2L15.4 14.11L11.46 10.18Q11.6 10.01 11.8 9.76Q12.23 9.23 12.43 8.96Q12.76 8.51 12.97 8.12Q13.41 7.29 13.41 6.46ZM11.2 10.2C11.35 10.01 11.5 9.82 11.65 9.63C12.51 8.57 13.33 7.56 13.2 6.2C13.04 4.59 12.41 3.27 11.2 2.2C9.99 1.13 7.81 0.15 6.2 0.2C4.58 0.25 3.34 1.06 2.2 2.2C1.05 3.34 0.25 4.58 0.2 6.2C0.15 7.81 1.13 9.98 2.2 11.2C3.27 12.41 4.59 13.05 6.2 13.2C7.57 13.33 8.58 12.5 9.64 11.64C9.82 11.49 10.01 11.34 10.2 11.2L14.2 15.2C14.22 15.2 14.28 15.2 14.36 15.2L14.36 15.2C14.62 15.21 15.12 15.23 15.2 15.2C15.23 15.12 15.21 14.62 15.2 14.36L15.2 14.36C15.2 14.28 15.2 14.22 15.2 14.2L11.2 10.2ZM10.2 3.2C10.64 3.64 10.95 4.62 11.2 5.2C11.34 5.54 11.31 5.61 11.27 5.73C11.24 5.82 11.2 5.94 11.2 6.2C11.2 6.4 11.22 6.62 11.25 6.84C11.3 7.31 11.36 7.8 11.2 8.2C10.96 8.78 10.64 9.75 10.2 10.2C9.75 10.64 8.78 10.96 8.2 11.2C7.8 11.36 7.31 11.3 6.84 11.25C6.62 11.22 6.4 11.2 6.2 11.2C5.94 11.2 5.82 11.24 5.73 11.27C5.6 11.31 5.54 11.34 5.2 11.2C4.62 10.95 3.64 10.65 3.2 10.2C2.32 9.3 2.19 7.45 2.2 6.2C2.2 4.94 2.31 4.09 3.2 3.2C4.08 2.31 4.94 2.2 6.2 2.2C7.45 2.19 9.3 2.32 10.2 3.2ZM10.85 4.86Q10.96 5.15 11.01 5.27Q11.1 5.48 11.1 5.56Q11.11 5.59 11.08 5.66Q11.04 5.77 11.02 5.86Q11 6.01 11 6.2Q11 6.41 11.05 6.87Q11.1 7.33 11.1 7.55Q11.1 7.9 11.01 8.12Q10.97 8.23 10.87 8.48Q10.64 9.08 10.5 9.36Q10.27 9.84 10.06 10.06Q9.84 10.27 9.37 10.5Q9.08 10.64 8.48 10.87Q8.23 10.97 8.12 11.01Q7.9 11.1 7.55 11.1Q7.33 11.1 6.87 11.05Q6.41 11 6.2 11Q6.01 11 5.86 11.02Q5.77 11.04 5.66 11.08Q5.59 11.11 5.56 11.1Q5.48 11.1 5.27 11.01Q5.15 10.96 4.86 10.85Q4.28 10.62 4 10.49Q3.55 10.27 3.34 10.06Q2.38 9.09 2.4 6.2Q2.4 5.68 2.43 5.34Q2.47 4.93 2.56 4.61Q2.65 4.3 2.8 4.03Q2.82 4 2.84 3.97Q3.03 3.65 3.34 3.34Q3.65 3.03 3.97 2.84Q4 2.82 4.02 2.8Q4.3 2.65 4.61 2.56Q4.93 2.47 5.34 2.43Q5.68 2.4 6.2 2.4Q9.09 2.39 10.06 3.34Q10.27 3.55 10.49 4Q10.62 4.28 10.85 4.86Z" fill="#FFFFFF" fill-opacity="1.000000" fill-rule="evenodd"/>
</svg>
