<svg width="19.153809" height="17.082886" viewBox="0 0 19.1538 17.0829" fill="none" xmlns="http://www.w3.org/2000/svg" xmlns:xlink="http://www.w3.org/1999/xlink">
	<desc>
			Created with Pixso.
	</desc>
	<defs/>
	<path id="Vector" d="M12.07 17.08C12.63 17.08 12.67 16.48 13.07 16.08C13.46 15.68 14.07 15.64 14.07 15.08C14.07 14.51 13.46 13.48 13.07 13.08C12.67 12.68 12.63 13.08 12.07 13.08C11.51 13.08 10.46 12.68 10.07 13.08C9.67 13.48 10.07 14.51 10.07 15.08C10.07 15.64 9.67 15.68 10.07 16.08C10.46 16.48 11.51 17.08 12.07 17.08ZM4.07 17.08C4.63 17.08 5.67 16.48 6.07 16.08C6.46 15.68 6.07 15.64 6.07 15.08C6.07 14.51 6.46 13.48 6.07 13.08C5.67 12.68 4.63 13.08 4.07 13.08C3.51 13.08 3.46 12.68 3.07 13.08C2.67 13.48 2.07 14.51 2.07 15.08C2.07 15.64 2.67 15.68 3.07 16.08C3.46 16.48 3.51 17.08 4.07 17.08ZM18.07 2.08C18.33 2.07 18.88 2.27 19.07 2.08C19.25 1.89 19.07 1.34 19.07 1.08C19.07 0.81 19.25 0.27 19.07 0.08C18.88 -0.11 18.33 0.09 18.07 0.08L17.07 0.08C16.11 0.08 15.27 1.14 15.07 2.08L13.07 8.08C12.86 9.01 13.02 9.08 12.07 9.08L4.07 9.08L2.07 3.08L12.07 3.08C12.33 3.07 12.89 3.27 13.07 3.08C13.25 2.89 13.07 2.34 13.07 2.08C13.07 1.81 13.25 1.27 13.07 1.08C12.89 0.89 12.33 1.09 12.07 1.08L2.07 1.08C1.76 1.08 1.35 0.94 1.07 1.08C0.79 1.21 0.26 1.83 0.07 2.08C-0.12 2.32 0.13 2.77 0.07 3.08C0 3.38 -0.01 3.78 0.07 4.08L2.07 10.08C2.18 10.52 1.71 10.8 2.07 11.08C2.42 11.36 3.61 11.08 4.07 11.08L12.07 11.08C12.99 11.08 13.35 10.66 14.07 10.08C14.79 9.5 14.87 8.99 15.07 8.08L17.07 2.08L18.07 2.08Z" fill="#FFFFFF" fill-opacity="1.000000" fill-rule="nonzero"/>
</svg>
